<?xml version="1.0" encoding="utf-8"?>
<!-- Generator: Adobe Illustrator 16.0.0, SVG Export Plug-In . SVG Version: 6.00 Build 0)  -->
<!DOCTYPE svg PUBLIC "-//W3C//DTD SVG 1.1//EN" "http://www.w3.org/Graphics/SVG/1.1/DTD/svg11.dtd">
<svg version="1.1" id="Capa_1" xmlns="http://www.w3.org/2000/svg" xmlns:xlink="http://www.w3.org/1999/xlink" x="0px" y="0px"
	 width="119.793px" height="87.204px" viewBox="0 0 119.793 87.204" enable-background="new 0 0 119.793 87.204"
	 xml:space="preserve">
<g>
	<g>
		<path fill="#3D8B40" d="M67.199,10.439c4.395,0,7.97,3.584,7.97,7.988c0,4.396-3.575,7.973-7.97,7.973
			c-4.594,0-8.192-3.502-8.192-7.973C59.007,13.948,62.605,10.439,67.199,10.439 M67.199,0.439
			c-10.057,0-18.192,7.918-18.192,17.988c0,10.054,8.136,17.973,18.192,17.973c9.842,0,17.97-7.919,17.97-17.973
			C85.169,8.357,77.041,0.439,67.199,0.439L67.199,0.439z"/>
	</g>
</g>
<g>
	<path fill="#3D8B40" d="M23.971,17.504c2.433,0,4.338,1.999,4.338,4.551c0,2.396-1.946,4.346-4.338,4.346
		c-2.553,0-4.553-1.909-4.553-4.346C19.418,19.46,21.375,17.504,23.971,17.504 M23.971,7.504c-8.131,0-14.553,6.428-14.553,14.551
		c0,7.918,6.422,14.346,14.553,14.346c7.919,0,14.338-6.428,14.338-14.346C38.309,13.932,31.89,7.504,23.971,7.504L23.971,7.504z"/>
</g>
<g>
	<polygon fill-rule="evenodd" clip-rule="evenodd" fill="#3D8B40" points="114.19,21.952 91.766,35.855 91.766,63.893 114.19,77.6 
		119.793,77.6 119.793,21.952 	"/>
</g>
<g>
	<path fill="#242E2E" d="M69,56.787v5.025L55.402,74.787h-7.098H12v-18H69 M81,44.787H0v42h48.305h11.187h0.882L81,66.783V65.9
		V44.787L81,44.787z"/>
</g>
</svg>
